<svg width="65" height="25" viewBox="0 0 65 25" fill="none" xmlns="http://www.w3.org/2000/svg">
<path d="M61.7955 22.7529C61.7955 22.0071 62.3621 21.439 63.0682 21.439C63.7742 21.439 64.3409 22.0071 64.3409 22.7529C64.3409 23.4987 63.7742 24.0668 63.0682 24.0668C62.3621 24.0668 61.7955 23.4987 61.7955 22.7529ZM64.0424 22.8365V22.6709C64.0424 22.1347 63.6227 21.7139 63.0682 21.7139C62.5136 21.7139 62.0939 22.1347 62.0939 22.6709V22.8365C62.0939 23.3727 62.5136 23.7934 63.0682 23.7934C63.6227 23.7934 64.0424 23.3727 64.0424 22.8365ZM62.8773 23.4304H62.553V22.0967H63.1576C63.4561 22.0967 63.6091 22.2759 63.6091 22.5175C63.6091 22.7286 63.5136 22.8623 63.3667 22.92L63.6652 23.4304H63.3091L63.0606 22.9716H62.8758V23.4304H62.8773ZM63.1197 22.7286C63.2212 22.7286 63.2788 22.6846 63.2788 22.5889V22.4932C63.2788 22.3975 63.2212 22.3534 63.1197 22.3534H62.8773V22.7301H63.1197V22.7286Z" fill="black"/>
<path d="M0 22.3291H11.6667V24H0V22.3291ZM0 20.8101H11.6667V19.1392H0V20.8101ZM3.33333 17.6203H8.33333V15.9494H3.33333V17.6203ZM3.33333 14.4304H8.33333V12.7595H3.33333V14.4304ZM3.33333 11.2405H8.33333V9.56962H3.33333V11.2405ZM8.33333 6.37975H3.33333V8.05063H8.33333V6.37975ZM0 4.86076H11.6667V3.18987H0V4.86076ZM0 1.67089H11.6667V0H0V1.67089ZM13.3333 20.8101H31.1167C31.4152 20.2937 31.6424 19.7332 31.7879 19.1392H13.3348V20.8101H13.3333ZM29.7242 12.7595H16.6667V14.4304H31.1152C30.7485 13.797 30.2788 13.2319 29.7242 12.7595ZM16.6667 9.56962V11.2405H29.7242C30.2773 10.7681 30.7485 10.203 31.1152 9.56962H16.6667ZM31.1167 3.18987H13.3333V4.86076H31.7864C31.6409 4.26684 31.4136 3.70633 31.1152 3.18987H31.1167ZM25.6061 0H13.3333V1.67089H29.8985C28.7667 0.633418 27.2606 0 25.6061 0ZM16.6667 8.05063H21.6667V6.37975H16.6667V8.05063ZM26.3636 8.05063H31.747C31.8909 7.51747 31.9697 6.95848 31.9697 6.37975H26.3636V8.05063ZM16.6667 17.6203H21.6667V15.9494H16.6667V17.6203ZM26.3636 15.9494V17.6203H31.9697C31.9697 17.0415 31.8909 16.4825 31.747 15.9494H26.3636ZM13.3333 24H25.6061C27.2727 24 28.7667 23.3666 29.8985 22.3291H13.3333V24ZM46.6667 24L47.2455 22.3291H46.0864L46.6652 24H46.6667ZM45.5561 20.8101H47.7788L48.3636 19.1392H44.9712L45.5561 20.8101ZM48.8939 17.6203L49.4788 15.9494H43.8515L44.4364 17.6203H48.8939ZM43.3212 14.4304H50.0121L50.597 12.7595H42.7364L43.3212 14.4304ZM45.6712 8.05063L45.0909 6.37975H36.6652V8.05063H45.6712ZM48.7682 4.86076H60V3.18987H49.3485L48.7682 4.86076ZM50.4545 0L49.8758 1.67089H60V0H50.4545ZM33.3333 24H41.6667V22.3291H33.3333V24ZM33.3333 20.8101H41.6667V19.1392H33.3333V20.8101ZM36.6667 17.6203H41.6667V15.9494H36.6667V17.6203ZM36.6667 14.4304H41.6667V12.7595H36.6667V14.4304ZM56.6667 6.37975H48.2409L47.6606 8.05063H56.6652V6.37975H56.6667ZM51.6667 11.2405H56.6667V9.56962H47.1348L46.6667 10.92L46.1985 9.56962H36.6667V11.2405H41.6667V9.70481L42.2045 11.2405H51.1288L51.6667 9.70481V11.2405ZM56.6667 12.7595H51.6667V14.4304H56.6667V12.7595ZM51.6667 17.6203H56.6667V15.9494H51.6667V17.6203ZM51.6667 20.8101H60V19.1392H51.6667V20.8101ZM51.6667 24H60V22.3291H51.6667V24ZM44.5652 4.86076L43.9848 3.18987H33.3333V4.86076H44.5652ZM43.4591 1.67089L42.8788 0H33.3333V1.67089H43.4591Z" fill="black"/>
</svg>
